<?xml version="1.0" encoding="UTF-8"?><svg id="Layer_2" xmlns="http://www.w3.org/2000/svg" viewBox="0 0 249.55 62.28"><defs><style>.cls-1{fill:#18341a;}.cls-2{fill:#6d6e71;}</style></defs><g id="Layer_2-2"><g><path class="cls-1" d="M29.94,45.45c0,10.72-4.43,16.83-15.36,16.83-10.15,0-13.27-5.68-13.87-10.23H6.6c.98,3.67,3.92,5.61,8.23,5.61,7.6,0,9.49-4.82,9.49-12.53v-2.71c-1.78,3.75-4.85,5.88-10.46,5.88C5.61,48.3,0,41.58,0,31.77,0,20.85,6.36,14.2,14.45,14.2c6.38,0,9.1,3,9.86,5.22,.06-1.52,.2-3.73,.27-4.43h5.46c-.02,1.94-.11,6.45-.11,9.67v20.79ZM6,31.52c0,7.06,3.67,11.85,9.14,11.85,7.22,0,9.33-4.85,9.33-12.28s-1.99-11.99-9.13-11.99c-6.19,0-9.34,5.18-9.34,12.42Z"/><path class="cls-1" d="M39.78,24.08c0-4.68-.04-7.31-.07-9.09h5.67c.09,.94,.18,3.57,.18,6.83,1.75-4.53,5.74-7.45,11.28-7.62v5.76c-6.87,.21-11.28,3.79-11.28,12.25v16.25h-5.78V24.08Z"/><path class="cls-1" d="M86.82,41.16c0,3.04,.26,6.34,.46,7.3h-5.53c-.26-.75-.46-2.34-.55-4.38-1.17,2.23-3.84,5.17-10.33,5.17-7.89,0-11.26-5.14-11.26-10.23,0-7.47,5.87-10.89,15.82-10.89h5.71v-2.85c0-2.95-.94-6.55-7.21-6.55-5.59,0-6.54,2.77-7.14,5.39h-5.59c.44-4.61,3.29-9.94,12.92-9.92,8.18,.02,12.71,3.36,12.71,10.97v16Zm-5.64-9.02h-5.42c-6.67,0-10.25,1.84-10.25,6.56,0,3.48,2.39,6.02,6.52,6.02,8.06,0,9.15-5.43,9.15-11.51v-1.07Z"/><path class="cls-1" d="M102.56,44.33v17.29h-5.76V23.16c0-2.73,0-5.56-.07-8.17h5.62c.13,1.11,.2,3.14,.2,5.26,1.81-3.38,5.21-6.06,10.94-6.06,7.74,0,13.37,6.49,13.37,16.67,0,11.95-6.45,18.39-14.56,18.39-5.41,0-8.24-2.27-9.75-4.93Zm18.35-13.23c0-7.1-3.23-11.95-8.95-11.95-6.94,0-9.68,4.39-9.68,12.52s2.25,12.71,9.24,12.71c6.12,0,9.38-5.04,9.38-13.28Z"/><path class="cls-1" d="M140.2,0V19.93c1.71-2.94,4.76-5.73,10.45-5.73,5.36,0,11.27,2.94,11.27,12.9v21.37h-5.75V28.06c0-5.69-2.41-8.85-7.28-8.85-6.02,0-8.68,3.98-8.68,10.95v18.3h-5.78V0h5.78Z"/><path class="cls-2" d="M200.9,26.99h-22.84v16.25h25.08l-.79,5.22h-30.27V2.54h29.91V7.75h-23.94v14.02h22.84v5.22Z"/><path class="cls-2" d="M209.93,24.08c0-4.68-.04-7.31-.07-9.09h5.67c.09,.94,.18,3.57,.18,6.83,1.75-4.53,5.74-7.45,11.28-7.62v5.76c-6.87,.21-11.28,3.79-11.28,12.25v16.25h-5.78V24.08Z"/><path class="cls-2" d="M232.5,24.08c0-4.68-.04-7.31-.07-9.09h5.67c.09,.94,.18,3.57,.18,6.83,1.75-4.53,5.74-7.45,11.28-7.62v5.76c-6.87,.21-11.28,3.79-11.28,12.25v16.25h-5.78V24.08Z"/></g></g></svg>